<svg width="15" height="15" viewBox="0 0 15 15" fill="none" xmlns="http://www.w3.org/2000/svg">
<path d="M7.5 15C11.64 15 15 11.64 15 7.5C15 3.36 11.64 0 7.5 0C3.36 0 0 3.36 0 7.5C0 11.64 3.36 15 7.5 15ZM4.875 6.9375H8.7675L7.4775 5.6475C7.26 5.43 7.26 5.07 7.4775 4.8525C7.59 4.74 7.7325 4.6875 7.875 4.6875C8.0175 4.6875 8.16 4.74 8.2725 4.8525L10.5225 7.1025C10.74 7.32 10.74 7.68 10.5225 7.8975L8.2725 10.1475C8.055 10.365 7.695 10.365 7.4775 10.1475C7.26 9.93 7.26 9.57 7.4775 9.3525L8.7675 8.0625L4.875 8.0625C4.5675 8.0625 4.3125 7.8075 4.3125 7.5C4.3125 7.1925 4.5675 6.9375 4.875 6.9375Z" fill="#367FF7"/>
</svg>
